<svg id="Capa_1" enable-background="new 0 0 510 510" height="512" viewBox="0 0 510 510" width="512" xmlns="http://www.w3.org/2000/svg" xmlns:xlink="http://www.w3.org/1999/xlink"><linearGradient id="lg1"><stop offset="0" stop-color="#d8ecfe"/><stop offset=".5667" stop-color="#b3dafe"/><stop offset=".9955" stop-color="#8ac9fe"/></linearGradient><linearGradient id="SVGID_1_" gradientUnits="userSpaceOnUse" x1="23.933" x2="241.01" xlink:href="#lg1" y1="421.8" y2="421.8"/><linearGradient id="SVGID_2_" gradientUnits="userSpaceOnUse" x1="-48.351" x2="117.03" xlink:href="#lg1" y1="445.16" y2="445.16"/><linearGradient id="SVGID_3_" gradientUnits="userSpaceOnUse" x1="-36.291" x2="116.839" xlink:href="#lg1" y1="421.8" y2="421.8"/><linearGradient id="lg2"><stop offset="0" stop-color="#eaf6ff"/><stop offset=".5213" stop-color="#d8ecfe"/><stop offset="1" stop-color="#b3dafe"/></linearGradient><linearGradient id="SVGID_4_" gradientUnits="userSpaceOnUse" x1="86.214" x2="204.367" xlink:href="#lg2" y1="346.125" y2="346.125"/><linearGradient id="SVGID_5_" gradientUnits="userSpaceOnUse" x1="38.857" x2="178.889" xlink:href="#lg2" y1="346.125" y2="346.125"/><linearGradient id="SVGID_6_" gradientUnits="userSpaceOnUse" x1="60.107" x2="478.595" xlink:href="#lg2" y1="212.966" y2="212.966"/><linearGradient id="SVGID_7_" gradientUnits="userSpaceOnUse" x1="-77.886" x2="232.599" xlink:href="#lg2" y1="212.967" y2="212.967"/><linearGradient id="lg3"><stop offset="0" stop-color="#60b7ff"/><stop offset=".5857" stop-color="#0182fc"/><stop offset="1" stop-color="#2740b0"/></linearGradient><linearGradient id="SVGID_8_" gradientUnits="userSpaceOnUse" x1="132.104" x2="528.368" xlink:href="#lg3" y1="192.355" y2="192.355"/><linearGradient id="SVGID_9_" gradientUnits="userSpaceOnUse" x1="-58.018" x2="517.984" xlink:href="#lg3" y1="192.358" y2="192.358"/><linearGradient id="lg4"><stop offset="0" stop-color="#fef056"/><stop offset=".5213" stop-color="#f4d902"/><stop offset="1" stop-color="#fe9738"/></linearGradient><linearGradient id="SVGID_10_" gradientUnits="userSpaceOnUse" x1="111.105" x2="446.246" xlink:href="#lg4" y1="198.182" y2="198.182"/><linearGradient id="SVGID_11_" gradientUnits="userSpaceOnUse" x1="87.649" x2="379.202" xlink:href="#lg4" y1="99.925" y2="99.925"/><linearGradient id="SVGID_12_" gradientUnits="userSpaceOnUse" x1="87.649" x2="379.202" xlink:href="#lg4" y1="198.182" y2="198.182"/><linearGradient id="lg5"><stop offset="0" stop-color="#814aa0"/><stop offset="1" stop-color="#192a7d"/></linearGradient><linearGradient id="SVGID_13_" gradientUnits="userSpaceOnUse" x1="385.695" x2="503.849" xlink:href="#lg5" y1="46.643" y2="46.643"/><linearGradient id="SVGID_14_" gradientUnits="userSpaceOnUse" x1="338.339" x2="478.371" xlink:href="#lg5" y1="46.643" y2="46.643"/><g><g><path d="m143.902 339.91c-2.31-3.91-6.51-6.31-11.04-6.31-4.54 0-8.74 2.4-11.05 6.31l-88.995 150.749c-5.045 8.548 1.117 19.341 11.044 19.341 4.537 0 8.737-2.398 11.043-6.305l65.128-110.315v103.797c0 7.082 5.741 12.823 12.823 12.823h.003c7.082 0 12.823-5.741 12.823-12.823v-103.797l65.128 110.315c2.306 3.907 6.506 6.305 11.043 6.305 9.926 0 16.089-10.793 11.043-19.341z" fill="url(#SVGID_1_)"/><g><path d="m120.082 380.32v13.01l-.05.08-65.15 110.32c-1.15 1.94-2.77 3.5-4.66 4.58-1.9 1.09-4.09 1.69-6.36 1.69h-.35l.01-.01z" fill="url(#SVGID_2_)"/><path d="m234.692 497.16c0 6.69-5.34 12.84-12.84 12.84-4.53 0-8.72-2.39-11.02-6.27l-65.15-110.35v103.8c0 7.08-5.74 12.82-12.82 12.82h-.01c-2.13 0-4.14-.52-5.91-1.45v-143.37c0-2.3-.62-4.55-1.79-6.53-2.25-3.81-6.29-6.16-10.7-6.28l7.36-12.46c2.31-3.91 6.51-6.31 11.05-6.31 4.53 0 8.73 2.4 11.04 6.31l88.99 150.75c1.24 2.1 1.8 4.33 1.8 6.5z" fill="url(#SVGID_3_)"/></g></g><g><circle cx="132.857" cy="346.125" fill="url(#SVGID_4_)" r="46.643"/><path d="m132.857 299.482c-4.334 0-8.524.604-12.505 1.709 19.685 5.468 34.138 23.507 34.138 44.934s-14.453 39.466-34.138 44.934c3.981 1.106 8.172 1.709 12.505 1.709 25.76 0 46.643-20.883 46.643-46.643s-20.883-46.643-46.643-46.643z" fill="url(#SVGID_5_)"/></g><g><path d="m466.94 372.667c-81.996 81.996-229.195 67.738-328.779-31.845s-113.842-246.784-31.846-328.78 442.62 278.629 360.625 360.625z" fill="url(#SVGID_6_)"/><path d="m120.859 2.906c127.346 30.894 375.523 300.299 306.061 369.761-31.154 31.154-71.724 48.398-115.516 52.362 58.686 5.122 115.057-11.883 155.536-52.362 77.837-77.837-243.175-406.737-346.081-369.761z" fill="url(#SVGID_7_)"/><path d="m466.94 372.667c-20.577 20.577-58.701 13.279-102.974-10.495-4.384-2.354-8.828-4.87-13.322-7.536-3.284-1.949-6.595-3.978-9.928-6.083-34.716-21.931-71.817-52.116-106.416-85.671-3.012-2.921 2.639-12.447-.332-15.416-3.057-3.055-14.734.446-17.74-2.653-33.707-34.741-64.022-72.011-85.996-106.861-2.311-3.666-.344-7.327-2.465-10.934-2.258-3.839-8.591-7.618-10.62-11.376-24.042-44.539-31.506-82.926-10.832-103.6 81.996-81.996 442.62 278.629 360.625 360.625z" fill="url(#SVGID_8_)"/><path d="m120.859 2.906c35.584 8.633 80.604 35.892 125.491 72.205l-132.547 34.149c1.002 1.963 2.039 3.94 3.108 5.929 3.034 5.643 9.631 11.386 13.177 17.205l140.28-36.984c.123.108.245.216.368.324 19.988 17.637 20.824 48.543 1.974 67.393l-68.758 68.758c4.024 4.329 8.108 8.63 12.243 12.892 1.828 1.884 6.724.705 8.571 2.574l99.68-99.68c5.965 6.308 11.807 12.686 17.499 19.105 10.183 11.484 13.921 27.315 10.092 42.178l-32.333 125.526c7.193 5.075 14.328 9.852 21.364 14.288.412.26 2.025-.682 2.437-.424l34.549-137.561c50.905 67.603 78.19 132.56 48.866 161.884-4.159 4.159-9.045 7.16-14.544 9.136 22.978 5.574 42.03 3.398 54.564-9.136 77.837-77.837-243.175-406.737-346.081-369.761z" fill="url(#SVGID_9_)"/></g><path d="m441.082 37.9c-3.21-3.21-7.88-4.48-12.27-3.35l-312.05 80.39c4.04 7.51 8.54 15.2 13.47 23.01l259.51-66.85-50.76 50.76-122.85 122.85c5.95 6.14 12 12.19 18.14 18.14l122.85-122.85 50.76-50.76-66.85 259.51c7.81 4.93 15.5 9.43 23.01 13.47l80.39-312.05c1.13-4.4-.14-9.06-3.35-12.27z" fill="url(#SVGID_10_)"/><g><path d="m389.815 71.1 9.2-9.2-272.432 70.161c1.189 1.955 2.405 3.918 3.649 5.889z" fill="url(#SVGID_11_)"/><path d="m441.082 37.9c-3.21-3.21-7.88-4.48-12.27-3.35l-14.013 3.61c3.031 3.199 4.223 7.723 3.122 12.01-.572 2.222-1.73 4.25-3.353 5.873l-193.59 193.59c4.387 4.451 8.807 8.869 13.294 13.217l173.575-173.576.034-.034-66.85 259.51c7.81 4.93 15.5 9.43 23.01 13.47l80.39-312.05c1.131-4.4-.139-9.06-3.349-12.27z" fill="url(#SVGID_12_)"/></g><g><circle cx="432.339" cy="46.643" fill="url(#SVGID_13_)" r="46.643"/><path d="m432.339 0c-4.334 0-8.524.604-12.505 1.709 19.685 5.468 34.138 23.507 34.138 44.934s-14.453 39.466-34.138 44.934c3.981 1.106 8.172 1.709 12.505 1.709 25.76 0 46.643-20.883 46.643-46.643s-20.883-46.643-46.643-46.643z" fill="url(#SVGID_14_)"/></g></g></svg>